<svg id="Capa_1" enable-background="new 0 0 512 512" height="512" viewBox="0 0 512 512" width="512" xmlns="http://www.w3.org/2000/svg"><g><g><g><g><g><g><g><g><g><g><g><path d="m61.238 161.778c.012-10.724 8.715-19.407 19.438-19.396l356.098.39v-44.023c0-10.724-8.693-19.417-19.417-19.417h-219.875c-12.477 0-24.133-6.222-31.076-16.589l-5.088-7.597c-6.939-10.36-18.584-16.581-31.053-16.589l-101.427-.065c-15.892-.01-28.781 12.869-28.784 28.761l-.054 349.887c0 11.428 9.264 20.693 20.693 20.693 22.248 0 40.289-18.024 40.311-40.271z" fill="#fbd307"/><path d="m403.758 438.02c18.96-.633 34.145-16.191 34.166-35.309l.26-263.191c.012-10.724-8.672-19.426-19.395-19.438l-358.426-.427c-10.724-.012-19.426 8.672-19.438 19.396l-.277 278.145c-.012 11.274-9.162 20.645-20.437 20.633z" fill="#fce25c"/><path d="m450.593 120.082h-41.283c10.724.012 19.407 8.715 19.396 19.438l-.26 263.191c-.021 19.118-15.207 34.676-34.166 35.309l40.042.021c19.534.021 35.386-15.796 35.407-35.33l.26-263.191c.011-10.724-8.672-19.427-19.396-19.438z" fill="#fbd307"/></g></g></g></g></g></g></g><g><path d="m191.279 167.962h-93.196c-3.78 0-6.845 3.064-6.845 6.845v31.193c0 3.78 3.064 6.845 6.845 6.845h93.196c3.78 0 6.845-3.064 6.845-6.845v-31.193c0-3.78-3.065-6.845-6.845-6.845z" fill="#f4f8f8"/></g><path d="m191.279 167.962h-34.437v38.038c0 3.78-3.064 6.845-6.845 6.845h41.281c3.78 0 6.845-3.064 6.845-6.845v-31.193c.001-3.78-3.064-6.845-6.844-6.845z" fill="#e5ecf1"/></g></g><g><g><path d="m493.76 337.408c-14.432-.054-21.644-17.52-11.423-27.741 7.097-7.097 7.097-18.602 0-25.699l-7.177-7.177c-7.096-7.096-18.345-6.742-25.468.327-10.244 10.167-27.693 2.916-27.693-11.538 0-10.036-8.136-18.172-18.172-18.172h-9.756c-10.036 0-18.172 8.136-18.172 18.172 0 14.477-17.504 21.728-27.741 11.491-7.097-7.097-18.602-7.097-25.699 0l-6.898 6.898c-7.097 7.097-7.097 18.602 0 25.699 10.221 10.221 3.009 27.686-11.423 27.741-10.035.038-18.24 7.742-18.24 17.777v10.15c0 10.036 8.136 18.172 18.172 18.172 14.477 0 21.728 17.504 11.491 27.741-7.097 7.097-7.097 18.602 0 25.699l6.898 6.898c7.097 7.097 18.602 7.097 25.699 0 10.237-10.237 27.741-2.987 27.741 11.491 0 10.036 8.136 18.172 18.172 18.172h9.755c10.036 0 18.172-8.136 18.172-18.172 0-14.477 17.504-21.728 27.741-11.491 7.097 7.097 18.602 7.097 25.699 0l6.898-6.898c7.097-7.097 7.097-18.603 0-25.699-10.221-10.221-3.009-27.686 11.423-27.741 10.035-.038 18.24-7.742 18.24-17.777v-10.545c.001-10.036-8.204-17.741-18.239-17.778zm-92.127 64.273c-24.93 1.575-45.482-18.977-43.907-43.907 1.299-20.559 17.981-37.241 38.541-38.54 24.93-1.575 45.482 18.977 43.907 43.907-1.3 20.559-17.982 37.241-38.541 38.54z" fill="#f4f8f8"/></g></g><g><path d="m493.76 337.408c-14.433-.054-21.644-17.52-11.423-27.741 7.097-7.097 7.097-18.602 0-25.699l-7.177-7.177c-7.096-7.096-18.345-6.742-25.468.327-2.736 2.715-5.985 4.188-9.279 4.613 18.403 20.784 29.576 48.117 29.576 78.061 0 30.538-11.62 58.361-30.68 79.29 3.685.216 7.381 1.714 10.431 4.764 7.096 7.096 18.602 7.096 25.699 0l6.898-6.898c7.097-7.097 7.097-18.602 0-25.699-10.221-10.221-3.009-27.686 11.423-27.741 10.035-.038 18.24-7.742 18.24-17.777v-10.545c0-10.036-8.205-17.741-18.24-17.778z" fill="#e5ecf1"/></g></g></g></svg>