<svg xmlns="http://www.w3.org/2000/svg" xmlns:xlink="http://www.w3.org/1999/xlink" width="32" height="32" viewBox="0 0 32 32">
  <defs>
    <clipPath id="clip-_2">
      <rect width="32" height="32"/>
    </clipPath>
  </defs>
  <g id="_2" data-name="2" clip-path="url(#clip-_2)">
    <rect width="32" height="32" fill="#fff"/>
    <g id="Group_2" data-name="Group 2" transform="translate(4.886 7.565)">
      <path id="Path_1" data-name="Path 1" d="M15.336,0l-2.19,0A3.845,3.845,0,0,0,9.094,4.152V6.066h-2.2a.345.345,0,0,0-.345.344V9.184a.344.344,0,0,0,.345.344h2.2v7a.344.344,0,0,0,.344.344h2.874a.344.344,0,0,0,.344-.344v-7h2.575a.344.344,0,0,0,.345-.344V6.41a.345.345,0,0,0-.345-.344H12.657V4.443c0-.78.186-1.176,1.2-1.176h1.476a.344.344,0,0,0,.344-.344V.347A.344.344,0,0,0,15.336,0Z" fill="#fff"/>
    </g>
    <circle id="Ellipse_1" data-name="Ellipse 1" cx="16" cy="16" r="16" fill="#7f7f7f"/>
    <g id="Group_1" data-name="Group 1" transform="translate(4.886 7.565)">
      <path id="Path_1-2" data-name="Path 1" d="M15.336,0l-2.19,0A3.845,3.845,0,0,0,9.094,4.152V6.066h-2.2a.345.345,0,0,0-.345.344V9.184a.344.344,0,0,0,.345.344h2.2v7a.344.344,0,0,0,.344.344h2.874a.344.344,0,0,0,.344-.344v-7h2.575a.344.344,0,0,0,.345-.344V6.41a.345.345,0,0,0-.345-.344H12.657V4.443c0-.78.186-1.176,1.2-1.176h1.476a.344.344,0,0,0,.344-.344V.347A.344.344,0,0,0,15.336,0Z" fill="#fff"/>
    </g>
  </g>
</svg>
