<?xml version="1.0" encoding="iso-8859-1"?>
<!-- Generator: Adobe Illustrator 21.0.0, SVG Export Plug-In . SVG Version: 6.00 Build 0)  -->
<svg xmlns="http://www.w3.org/2000/svg" xmlns:xlink="http://www.w3.org/1999/xlink" version="1.1" id="Capa_1" x="0px" y="0px" viewBox="0 0 512 512" style="enable-background:new 0 0 512 512;" xml:space="preserve" width="512" height="512">
<g>
	<path d="M507.5,422.601L420,335.1l42.599-42.299c3.6-3.6,5.101-9.001,3.9-14.101c-1.199-5.099-4.799-9-9.901-10.8l-254.399-84.9   c-5.4-1.8-11.4-0.3-15.3,3.9c-4.199,3.9-5.7,9.901-3.9,15.3L267.9,456.599c1.8,5.101,5.7,8.701,10.8,9.901   c5.101,1.199,10.501-0.3,14.101-3.9L335.099,420l87.5,87.499c2.999,3.001,6.899,4.501,10.8,4.501c3.6,0,7.5-1.5,10.501-4.501   l63.6-63.6C513.5,438.199,513.5,428.601,507.5,422.601z"/>
	<path d="M195,360c-90.901,0-165-74.101-165-165c0-45.601,18.6-86.7,48.3-116.7c30-29.7,71.1-48.3,116.7-48.3   c90.901,0,165,74.099,165,165c0,2.964-0.571,5.848-0.729,8.795l29.191,9.743C389.055,207.365,390,201.237,390,195   C390,87.6,302.401,0,195,0C141.301,0,92.401,21.899,57.299,57.299C21.899,92.399,0,141.299,0,195c0,107.399,87.599,195,195,195   c6.237,0,12.363-0.945,18.536-1.538l-9.741-29.191C200.848,359.429,197.963,360,195,360z"/>
	<path d="M195,120c33.6,0,61.725,22.28,71.257,52.751l32.593,10.876C293.093,131.129,249.005,90,195,90   c-28.801,0-55.201,11.7-74.099,30.899C101.7,139.799,90,166.199,90,195c0,54.005,41.129,98.093,93.627,103.85l-10.876-32.593   C142.28,256.725,120,228.6,120,195c0-20.7,8.401-39.6,21.899-53.101C155.4,128.399,174.3,120,195,120z"/>
</g>















</svg>
