<svg id="_x31__x2C_5" enable-background="new 0 0 24 24" height="512" viewBox="0 0 24 24" width="512" xmlns="http://www.w3.org/2000/svg"><path d="m12 10c-2.206 0-4-1.794-4-4s1.794-4 4-4 4 1.794 4 4-1.794 4-4 4zm0-6.5c-1.379 0-2.5 1.121-2.5 2.5s1.121 2.5 2.5 2.5 2.5-1.121 2.5-2.5-1.121-2.5-2.5-2.5z"/><path d="m19.25 20c-.414 0-.75-.336-.75-.75v-2.5c0-1.792-1.458-3.25-3.25-3.25h-6.5c-1.792 0-3.25 1.458-3.25 3.25v2.5c0 .414-.336.75-.75.75s-.75-.336-.75-.75v-2.5c0-2.619 2.131-4.75 4.75-4.75h6.5c2.619 0 4.75 2.131 4.75 4.75v2.5c0 .414-.336.75-.75.75z"/><path d="m.75 6.5c-.414 0-.75-.336-.75-.75v-3c0-1.517 1.233-2.75 2.75-2.75h3c.414 0 .75.336.75.75s-.336.75-.75.75h-3c-.689 0-1.25.561-1.25 1.25v3c0 .414-.336.75-.75.75z"/><path d="m5.75 24h-3c-1.517 0-2.75-1.233-2.75-2.75v-3c0-.414.336-.75.75-.75s.75.336.75.75v3c0 .689.561 1.25 1.25 1.25h3c.414 0 .75.336.75.75s-.336.75-.75.75z"/><path d="m23.25 6.5c-.414 0-.75-.336-.75-.75v-3c0-.689-.561-1.25-1.25-1.25h-3c-.414 0-.75-.336-.75-.75s.336-.75.75-.75h3c1.517 0 2.75 1.233 2.75 2.75v3c0 .414-.336.75-.75.75z"/><path d="m21.25 24h-3c-.414 0-.75-.336-.75-.75s.336-.75.75-.75h3c.689 0 1.25-.561 1.25-1.25v-3c0-.414.336-.75.75-.75s.75.336.75.75v3c0 1.517-1.233 2.75-2.75 2.75z"/></svg>